<svg width="34" height="34" xmlns="http://www.w3.org/2000/svg"><g transform="translate(1 1)" fill="none" fill-rule="evenodd"><circle stroke="#979797" cx="16" cy="16" r="16"/><path d="M15.907 10c.593 0 1.186.018 1.76.018.148 0 .333 0 .333.204 0 .592-.944.592-1.352.647.611.425.815 1.258.815 1.979 0 2.274-1.796 2.57-1.796 3.236 0 .61 2.333 1.516 2.333 3.606 0 2.33-2.167 3.31-4.204 3.31C12.037 23 10 22.242 10 20.19c0-2.183 2.407-2.793 4.185-2.793-.222-.61-.426.037-.426-1.22-1.778 0-3.037-1.036-3.037-2.867 0-1.498.963-2.589 2.352-3.033.796-.259 2-.277 2.833-.277zm-1.122 5c.911 0 1.215-.793 1.215-1.532 0-.936-.589-2.468-1.785-2.468-.892 0-1.215.81-1.215 1.532 0 .936.589 2.468 1.785 2.468zm-.373 6c1.07 0 2.588-.543 2.588-1.564C17 18.431 15.619 18 14.588 18 13.459 18 12 18.43 12 19.532 12 20.553 13.362 21 14.412 21zm8.715-7.88V15h-1.254v-1.88H20v-1.24h1.873V10h1.254v1.88H25v1.24h-1.873z" fill="#707070"/></g></svg>