<svg version="1" xmlns="http://www.w3.org/2000/svg" width="933.333" height="933.333" viewBox="0 0 700.000000 700.000000"><path d="M0 159.7v159.8h159c158.3 0 159 0 159.1-2 .4-11.3 0-58.7-.5-59.3-.4-.4-57.5-.8-126.9-.9-69.4 0-126.8-.2-127.4-.2-1-.1-1.3-20.3-1.3-97.6V62l2.3-.1h190.5c1 .1 1.3 1.7 1.2 5.8-.1 3.2-.1 11.9-.1 19.4l.1 13.5h31.3l31.2-.1.3-50.3.3-50.2H0v159.7zM379 160.8V320l30.8-.2 30.7-.3.2-38c.2-20.9.4-38.4.7-39 .2-.7 42.1-1 128-.9 87 0 127.9-.3 128.3-1 .7-1.1 1.2-56.3.5-58.4-.3-.9-27-1.2-128.8-1.2H441v-3.8c-.3-23.8 0-112.4.3-113 .3-.4 44.3-.7 97.9-.7h97.3v19.2c.1 10.6.3 19.5.7 19.8.4.5 33 .8 56.8.6l5.5-.1-.1-50.7V1.5H379v159.3zM1.6 380.9c-.2.3-.4 19.6-.4 42.8v42.1l2.7 2.4c2.2 1.9 15.3 12.9 22.6 18.9 1.1 1 5.4 4.6 9.6 8 4.1 3.5 9.7 8.2 12.4 10.4 4.1 3.4 10.1 8.4 20 16.7 1.1.9 6.5 5.4 12 10 5.5 4.5 10.5 8.7 11.1 9.3.6.5 3.1 2.6 5.5 4.6 6.6 5.4 108.3 90.1 109.3 91 .5.5-45.1.8-101.4.9-56.3 0-102.6.3-102.9.6-.3.3-.6 14.3-.6 31V700H319V380.3h-61.9v65.1c0 35.8 0 86-.1 111.5v46.3l-5.8-4.8c-3.1-2.7-5.9-5.1-6.2-5.4-.3-.3-6.3-5.5-13.5-11.5-7.1-6.1-14.1-12-15.5-13.1-6.3-5.4-20-17.1-24.5-20.9-2.7-2.3-11.3-9.6-19-16.2-7.7-6.5-18.5-15.7-24-20.3-5.5-4.6-10.2-8.7-10.5-9-.3-.3-6.3-5.5-13.5-11.5-7.1-6-13.9-11.7-15-12.7-1.1-1-3-2.6-4.1-3.5-1.2-1-4.6-3.9-7.5-6.4-15.5-13.3-28.4-24.1-31.2-26.3l-3.2-2.5-.1-28.8c-.1-15.8-.2-29.1-.3-29.4-.1-.8-61-.8-61.5 0zM382.5 381c-.2.3-.4 72.2-.4 159.8l.1 159.2h317.5l.1-31v-31H588.3c-51.3 0-93.3-.2-93.3-.4 0-.3 27.1-23.2 46.3-39.1 2-1.7 38.5-32 81.1-67.5l77.5-64.5v-43.3l.1-43.2-158.6.2c-87.2.1-158.7.4-158.9.8zM633 442c0 .7-3.3 3.5-34.5 30-9.9 8.4-20.5 17.4-23.5 20-3 2.6-13.4 11.4-23 19.5-9.6 8.2-19.3 16.5-21.6 18.4-2.2 2-6.4 5.6-9.4 8.1-5.2 4.4-30.3 25.7-40.5 34.5-2.7 2.3-6.6 5.5-8.5 7.1-1.9 1.6-6.9 5.8-11 9.4-4.2 3.6-9.6 8.2-12 10.2l-4.5 3.8-.3-79.8c-.1-43.8 0-80.2.2-80.8.5-1.2 188.6-1.6 188.6-.4z"/></svg>