<?xml version="1.0" encoding="UTF-8"?>
<svg width="34px" height="34px" viewBox="0 0 34 34" version="1.1" xmlns="http://www.w3.org/2000/svg" xmlns:xlink="http://www.w3.org/1999/xlink">
    <!-- Generator: Sketch 42 (36781) - http://www.bohemiancoding.com/sketch -->
    <title>Google+</title>
    <desc>Created with Sketch.</desc>
    <defs></defs>
    <g id="Page-1" stroke="none" stroke-width="1" fill="none" fill-rule="evenodd">
        <g id="Nieuws-detail" transform="translate(-627.000000, -1005.000000)">
            <g id="Share-page" transform="translate(490.000000, 975.000000)">
                <g id="Google+" transform="translate(138.000000, 31.000000)">
                    <circle id="Background" stroke="#979797" cx="16" cy="16" r="16"></circle>
                    <path d="M15.9074074,10 C16.5,10 17.0925926,10.0184922 17.6666667,10.0184922 C17.8148148,10.0184922 18,10.0184922 18,10.2219061 C18,10.8136558 17.0555556,10.8136558 16.6481481,10.8691323 C17.2592593,11.2944523 17.462963,12.1266003 17.462963,12.8477952 C17.462963,15.1223329 15.6666667,15.4182077 15.6666667,16.083926 C15.6666667,16.6941679 18,17.6002845 18,19.6899004 C18,22.0199147 15.8333333,23 13.7962963,23 C12.037037,23 10,22.2418208 10,20.1891892 C10,18.0071124 12.4074074,17.3968706 14.1851852,17.3968706 C13.962963,16.7866287 13.7592593,17.4338549 13.7592593,16.1763869 C11.9814815,16.1763869 10.7222222,15.140825 10.7222222,13.3100996 C10.7222222,11.8122333 11.6851852,10.7211949 13.0740741,10.2773826 C13.8703704,10.0184922 15.0740741,10 15.9074074,10 Z M14.7848101,15 C15.6962025,15 16,14.2072072 16,13.4684685 C16,12.5315315 15.4113924,11 14.2151899,11 C13.3227848,11 13,11.8108108 13,12.5315315 C13,13.4684685 13.5886076,15 14.7848101,15 Z M14.4124514,21 C15.4824903,21 17,20.4574468 17,19.4361702 C17,18.4308511 15.618677,18 14.5875486,18 C13.459144,18 12,18.4308511 12,19.5319149 C12,20.5531915 13.3618677,21 14.4124514,21 Z M23.1273408,13.1203008 L23.1273408,15 L21.8726592,15 L21.8726592,13.1203008 L20,13.1203008 L20,11.8796992 L21.8726592,11.8796992 L21.8726592,10 L23.1273408,10 L23.1273408,11.8796992 L25,11.8796992 L25,13.1203008 L23.1273408,13.1203008 Z" id="Google+-Icon" fill="#707070"></path>
                </g>
            </g>
        </g>
    </g>
</svg>